<svg t="1717319943323" class="icon" viewBox="0 0 1084 1024" version="1.1" xmlns="http://www.w3.org/2000/svg" p-id="3211" width="200" height="200"><path d="M240.958645 903.529412v-221.06353a60.235294 60.235294 0 1 0-120.470589 0V963.764706a60.235294 60.235294 0 0 0 60.235295 60.235294h722.823529a60.235294 60.235294 0 0 0 60.235294-60.235294v-301.176471a60.235294 60.235294 0 0 0-120.470588 0v240.941177H240.958645z" fill="#000000" p-id="3212"></path><path d="M987.213704 530.371765a60.235294 60.235294 0 0 0 73.607529-95.352471L581.468762 64.632471a60.235294 60.235294 0 0 0-73.366588-0.180706L23.689939 434.898824a60.235294 60.235294 0 1 0 73.125647 95.713882L544.544527 188.295529l442.729412 342.076236z" fill="#000000" p-id="3213"></path></svg>